<?xml version="1.0" standalone="no"?>
<!DOCTYPE svg PUBLIC "-//W3C//DTD SVG 20010904//EN"
 "http://www.w3.org/TR/2001/REC-SVG-20010904/DTD/svg10.dtd">
<svg version="1.0" xmlns="http://www.w3.org/2000/svg"
 width="512.000000pt" height="512.000000pt" viewBox="0 0 512.000000 512.000000"
 preserveAspectRatio="xMidYMid meet">
<metadata>
Created by potrace 1.11, written by Peter Selinger 2001-2013
</metadata>
<g transform="translate(0.000000,512.000000) scale(0.100000,-0.100000)"
fill="#000000" stroke="none">
<path d="M255 5103 c-82 -33 -160 -101 -199 -174 -60 -109 -56 57 -53 -2384
l2 -2240 33 -70 c41 -88 124 -169 208 -205 l59 -25 2225 -3 c1464 -1 2241 1
2272 8 123 26 218 101 275 218 l38 76 0 2260 0 2261 -32 67 c-41 88 -98 148
-182 192 l-69 36 -2268 -1 c-2065 0 -2273 -1 -2309 -16z"/>
</g>
</svg>
